<svg width="178" height="29" viewBox="0 0 178 29" fill="none" xmlns="http://www.w3.org/2000/svg">
<path d="M12.491 0.267502L7.70223 9.67762V16.7101H4.85575V9.67762L0 0.267502H3.08089L6.42969 7.13253L9.81197 0.267502H12.491Z" fill="white"/>
<path d="M16.3095 4.58821C17.85 4.58821 19.1225 5.12402 20.0936 6.19563C21.0648 7.26725 21.5671 8.77421 21.5671 10.75C21.5671 12.7258 21.0648 14.2662 20.0936 15.3378C19.1225 16.4095 17.85 16.9453 16.3095 16.9453C14.7691 16.9453 13.4965 16.4095 12.5254 15.3378C11.5542 14.2662 11.0519 12.7593 11.0519 10.7835C11.0519 8.80769 11.5542 7.26725 12.5254 6.19563C13.4965 5.12402 14.7691 4.58821 16.3095 4.58821ZM16.3095 14.7016C17.0797 14.7016 17.649 14.3667 18.0509 13.7304C18.4527 13.0942 18.6537 12.0895 18.6537 10.7165C18.6537 9.3435 18.4527 8.33886 18.0509 7.70259C17.649 7.06632 17.0797 6.76493 16.3095 6.76493C15.5393 6.76493 14.97 7.09981 14.5681 7.73608C14.1663 8.37235 13.9653 9.37699 13.9653 10.75C13.9653 12.123 14.1663 13.1276 14.5681 13.7639C14.97 14.4002 15.5393 14.7016 16.3095 14.7016Z" fill="white"/>
<path d="M29.9385 13.3615V4.82208H32.7515V16.7103H30.0055L29.9385 15.7057H29.8045C29.5366 15.9736 29.1348 16.2415 28.599 16.5094C28.0632 16.7773 27.3934 16.8777 26.5562 16.8777C25.4176 16.8777 24.6139 16.6098 24.0781 16.074C23.5758 15.5382 23.3079 14.6675 23.3079 13.4955V4.82208H26.1209V13.1941C26.1209 13.6294 26.2548 13.9643 26.4892 14.1987C26.7236 14.4331 27.092 14.5336 27.5608 14.5336C28.0632 14.5336 28.532 14.3996 28.9338 14.1652C29.3692 13.9308 29.7041 13.6629 29.9385 13.3615Z" fill="white"/>
<path d="M37.9432 8.17099V16.7104H35.1302V4.82219H37.8763L37.9432 5.82683H38.0772C38.3451 5.55893 38.747 5.29103 39.2828 5.02312C39.8186 4.75522 40.4883 4.65475 41.3255 4.65475C42.4641 4.65475 43.2678 4.92266 43.8036 5.45846C44.306 5.99427 44.5739 6.86496 44.5739 8.03704V16.7104H41.7609V8.33843C41.7609 7.90309 41.6269 7.56821 41.3925 7.33379C41.1581 7.09938 40.7897 6.99891 40.3209 6.99891C39.8186 6.99891 39.3497 7.13286 38.9479 7.36728C38.5125 7.56821 38.1777 7.8696 37.9432 8.17099Z" fill="white"/>
<path d="M50.8694 4.58821C51.5057 4.58821 52.1085 4.72216 52.6443 5.02356C53.1801 5.32495 53.6154 5.7268 53.9838 6.2961L54.1178 4.82263H56.7298V14.4002C56.7298 16.376 56.328 17.8494 55.5243 18.8541C54.7205 19.8587 53.2806 20.361 51.2043 20.361C50.5345 20.361 49.9318 20.2941 49.4294 20.1936C48.9271 20.0931 48.5253 19.9592 48.1904 19.8252C47.8555 19.6913 47.5541 19.5238 47.2192 19.2894V17.0122C47.5876 17.2467 48.0564 17.4811 48.6592 17.749C49.262 18.0169 49.9652 18.1508 50.7355 18.1508C51.941 18.1508 52.7782 17.8829 53.1801 17.3806C53.6154 16.8448 53.8499 16.0411 53.8499 14.936C53.4815 15.4383 53.0461 15.8402 52.5438 16.1081C52.0415 16.376 51.4722 16.5099 50.8359 16.5099C49.4964 16.5099 48.3913 16.0076 47.5541 14.9695C46.7169 13.9314 46.2816 12.4579 46.2816 10.5491C46.2816 8.64026 46.7169 7.16679 47.5541 6.16215C48.4583 5.09053 49.5299 4.58821 50.8694 4.58821ZM51.5727 14.2327C52.3429 14.2327 52.9122 13.9314 53.314 13.3286C53.7159 12.7258 53.8833 11.7881 53.8833 10.5156C53.8833 9.20955 53.6824 8.27189 53.314 7.66911C52.9122 7.06632 52.3429 6.76493 51.5727 6.76493C50.769 6.76493 50.1997 7.06632 49.7978 7.66911C49.396 8.27189 49.195 9.20955 49.195 10.4821C49.195 11.7881 49.396 12.7258 49.7978 13.3286C50.1997 13.9314 50.8024 14.2327 51.5727 14.2327Z" fill="white"/>
<path d="M74.0101 16.7105C73.4743 16.7105 72.905 16.61 72.4027 16.3756C71.8669 16.1747 71.3311 15.8398 70.7953 15.4379C70.226 15.8733 69.5562 16.2417 68.8195 16.5096C68.0827 16.7775 67.279 16.9114 66.3748 16.9114C64.6335 16.9114 63.2605 16.4761 62.2893 15.5719C61.3182 14.7012 60.8158 13.5626 60.8158 12.1561C60.8158 11.0845 61.1172 10.2138 61.72 9.57756C62.3228 8.9078 63.0595 8.43897 63.8967 8.0706C63.3944 7.36735 63.026 6.73108 62.7581 6.09481C62.5237 5.45854 62.3898 4.82227 62.3898 4.21948C62.3898 3.65019 62.4902 3.08089 62.6577 2.57857C62.8586 2.07625 63.1265 1.60742 63.5284 1.23905C63.9302 0.870686 64.3991 0.569295 64.9684 0.33488C65.5376 0.100464 66.2074 0 66.9776 0C67.7144 0 68.3171 0.100464 68.853 0.33488C69.3888 0.535807 69.8241 0.837198 70.1925 1.20557C70.5608 1.57393 70.7953 1.97579 70.9627 2.47811C71.1301 2.94694 71.1971 3.48275 71.1971 4.01856C71.1971 5.02319 70.8622 5.86039 70.226 6.59713C69.5562 7.33386 68.786 7.90316 67.8148 8.3385L70.025 10.7831C70.1925 10.9506 70.3264 11.118 70.4939 11.3189C70.6613 11.4864 70.7953 11.6538 70.9292 11.8212C71.2306 11.252 71.4985 10.6157 71.7329 9.97941C71.9338 9.30965 72.1013 8.67338 72.2017 8.03711L74.1775 8.63989C74.0771 9.4436 73.9096 10.2473 73.6082 11.0845C73.3403 11.9217 72.9385 12.7254 72.4697 13.4622C72.8045 13.7636 73.1394 14.0315 73.4743 14.1989C73.8092 14.3663 74.144 14.4668 74.5124 14.4668C74.7468 14.4668 75.0147 14.4333 75.3496 14.3328L75.1487 16.5096C74.8138 16.6435 74.3785 16.7105 74.0101 16.7105ZM63.6958 12.0892C63.6958 12.8594 63.9302 13.4622 64.3991 13.9645C64.8679 14.4668 65.6046 14.7012 66.6093 14.7012C67.1116 14.7012 67.5469 14.6342 67.9823 14.5003C68.3841 14.3663 68.786 14.1654 69.1209 13.931C68.853 13.6631 68.6185 13.4287 68.3506 13.1273C68.0827 12.8594 67.8148 12.558 67.5469 12.2566L65.0688 9.47709C64.667 9.745 64.3656 10.0799 64.0977 10.4817C63.8298 10.9506 63.6958 11.4529 63.6958 12.0892ZM65.2363 4.05204C65.2363 4.62134 65.3702 5.15715 65.6381 5.59249C65.906 6.02783 66.2409 6.49666 66.6427 6.96549C67.212 6.56364 67.6809 6.1283 68.0158 5.62598C68.3506 5.12366 68.4846 4.55436 68.4846 3.91809C68.4846 3.38228 68.3841 2.94694 68.1497 2.61206C67.9153 2.27718 67.5469 2.10974 67.0111 2.10974C66.4753 2.10974 66.0065 2.31067 65.7051 2.67904C65.4037 3.0474 65.2363 3.51624 65.2363 4.05204Z" fill="#FED42B"/>
<path d="M90.0826 16.7105C89.5468 16.7105 88.9775 16.61 88.4752 16.3756C87.9394 16.1747 87.4035 15.8398 86.8677 15.4379C86.2984 15.8733 85.6287 16.2417 84.8919 16.5096C84.1552 16.7775 83.3515 16.9114 82.4473 16.9114C80.706 16.9114 79.3329 16.4761 78.3618 15.5719C77.3906 14.7012 76.8883 13.5626 76.8883 12.1561C76.8883 11.0845 77.1897 10.2138 77.7925 9.57756C78.3953 8.9078 79.132 8.43897 79.9692 8.0706C79.4669 7.36735 79.0985 6.73108 78.8306 6.09481C78.5962 5.45854 78.4623 4.82227 78.4623 4.21948C78.4623 3.65019 78.5627 3.08089 78.7302 2.57857C78.9311 2.07625 79.199 1.60742 79.6008 1.23905C80.0027 0.870686 80.4715 0.569295 81.0408 0.33488C81.6101 0.100464 82.2799 0 83.0501 0C83.7868 0 84.3896 0.100464 84.9254 0.33488C85.4612 0.535807 85.8966 0.837198 86.2649 1.20557C86.6333 1.57393 86.8677 1.97579 87.0352 2.47811C87.2026 2.94694 87.2696 3.48275 87.2696 4.01856C87.2696 5.02319 86.9347 5.86039 86.2984 6.59713C85.6287 7.33386 84.8585 7.90316 83.8873 8.3385L86.0975 10.7831C86.2649 10.9506 86.3989 11.118 86.5663 11.3189C86.7338 11.4864 86.8677 11.6538 87.0017 11.8212C87.3031 11.252 87.571 10.6157 87.8054 9.97941C88.0063 9.30965 88.1738 8.67338 88.2742 8.03711L90.25 8.63989C90.1496 9.4436 89.9821 10.2473 89.6807 11.0845C89.4128 11.9217 89.011 12.7254 88.5421 13.4622C88.877 13.7636 89.2119 14.0315 89.5468 14.1989C89.8817 14.3663 90.2165 14.4668 90.5849 14.4668C90.8193 14.4668 91.0872 14.4333 91.4221 14.3328L91.2212 16.5096C90.8863 16.6435 90.4509 16.7105 90.0826 16.7105ZM79.7683 12.0892C79.7683 12.8594 80.0027 13.4622 80.4715 13.9645C80.9404 14.4668 81.6771 14.7012 82.6817 14.7012C83.1841 14.7012 83.6194 14.6342 84.0547 14.5003C84.4566 14.3663 84.8585 14.1654 85.1933 13.931C84.9254 13.6631 84.691 13.4287 84.4231 13.1273C84.1552 12.8594 83.8873 12.558 83.6194 12.2566L81.1413 9.47709C80.7394 9.745 80.4381 10.0799 80.1701 10.4817C79.9022 10.9506 79.7683 11.4529 79.7683 12.0892ZM81.2752 4.05204C81.2752 4.62134 81.4092 5.15715 81.6771 5.59249C81.945 6.02783 82.2799 6.49666 82.6817 6.96549C83.251 6.56364 83.7199 6.1283 84.0547 5.62598C84.3896 5.12366 84.5236 4.55436 84.5236 3.91809C84.5236 3.38228 84.4231 2.94694 84.1887 2.61206C83.9543 2.27718 83.5859 2.10974 83.0501 2.10974C82.5143 2.10974 82.0455 2.31067 81.7441 2.67904C81.4427 3.0474 81.2752 3.51624 81.2752 4.05204Z" fill="#FED42B"/>
<path d="M104.016 0.267532L99.227 9.67765V16.7101H96.347V9.67765L91.5248 0.267532H94.6057L97.9545 7.13256L101.337 0.267532H104.016Z" fill="white"/>
<path d="M111.949 8.60678V13.7974C111.949 14.2997 111.949 14.7686 111.983 15.2374C112.016 15.7062 112.05 16.2085 112.083 16.6774H109.337C109.304 16.5769 109.237 16.4095 109.203 16.242C109.17 16.0746 109.136 15.9072 109.136 15.7397H109.002C108.734 16.0076 108.399 16.2755 107.964 16.5099C107.529 16.7444 106.926 16.8448 106.089 16.8448C105.017 16.8448 104.113 16.5099 103.443 15.8737C102.773 15.2039 102.439 14.2997 102.439 13.0942C102.439 11.8886 102.941 10.9509 103.945 10.2812C104.95 9.61142 106.524 9.27654 108.667 9.27654H109.103V8.60678C109.103 7.97051 108.935 7.53517 108.634 7.26726C108.332 6.99936 107.83 6.86541 107.16 6.86541C106.424 6.86541 105.72 6.99936 104.984 7.23378C104.247 7.50168 103.711 7.76958 103.309 8.03749V5.69333C103.745 5.42543 104.314 5.19101 105.017 4.95659C105.72 4.72218 106.558 4.58823 107.495 4.58823C108.969 4.58823 110.074 4.88962 110.81 5.4924C111.581 6.16216 111.949 7.1668 111.949 8.60678ZM109.136 13.8644V11.1519H108.734C107.529 11.1519 106.691 11.2858 106.156 11.5872C105.62 11.8886 105.352 12.3574 105.352 13.0607C105.352 13.5965 105.486 14.0318 105.787 14.3332C106.089 14.6681 106.524 14.8021 107.127 14.8021C107.629 14.8021 108.031 14.7016 108.366 14.5342C108.701 14.3332 108.969 14.1323 109.136 13.8644Z" fill="white"/>
<path d="M117.041 8.17099V16.7104H114.228V4.82219H116.974L117.041 5.82683H117.175C117.443 5.55893 117.845 5.29103 118.38 5.02312C118.916 4.75522 119.586 4.65475 120.423 4.65475C121.562 4.65475 122.365 4.92266 122.901 5.45846C123.404 5.99427 123.671 6.86496 123.671 8.03704V16.7104H120.858V8.33843C120.858 7.90309 120.725 7.56821 120.49 7.33379C120.256 7.09938 119.887 6.99891 119.418 6.99891C118.916 6.99891 118.447 7.13286 118.045 7.36728C117.61 7.56821 117.275 7.8696 117.041 8.17099Z" fill="white"/>
<path d="M129.9 16.9445C128.56 16.9445 127.489 16.4087 126.651 15.3706C125.814 14.299 125.412 12.8255 125.412 10.8497C125.412 8.87394 125.848 7.33349 126.685 6.22839C127.556 5.12329 128.661 4.58748 130 4.58748C130.603 4.58748 131.172 4.72143 131.675 4.98934C132.177 5.25724 132.612 5.6591 132.947 6.1949V0.267532H135.76V16.6766H133.148L133.014 15.1362C132.646 15.7055 132.177 16.1743 131.641 16.4757C131.172 16.7771 130.569 16.9445 129.9 16.9445ZM130.737 6.79768C129.933 6.79768 129.33 7.13257 128.929 7.76884C128.527 8.40511 128.326 9.44324 128.326 10.8497C128.326 12.1892 128.527 13.1604 128.895 13.7967C129.263 14.4329 129.833 14.7343 130.636 14.7343C131.44 14.7343 132.009 14.3995 132.411 13.7632C132.813 13.1269 133.014 12.1223 133.014 10.7493C133.014 9.37626 132.813 8.37162 132.445 7.73535C132.043 7.13257 131.507 6.79768 130.737 6.79768Z" fill="white"/>
<path d="M147.279 15.9071C146.877 16.175 146.341 16.4429 145.672 16.6439C145.002 16.8448 144.232 16.9453 143.327 16.9453C141.553 16.9453 140.18 16.443 139.175 15.4048C138.204 14.4002 137.701 12.8597 137.701 10.7835C137.701 9.87931 137.802 9.04211 138.003 8.30537C138.204 7.53515 138.505 6.89888 138.94 6.32959C139.376 5.76029 139.878 5.35843 140.514 5.05704C141.151 4.75565 141.887 4.58821 142.758 4.58821C144.165 4.58821 145.27 5.02356 146.14 5.89424C146.978 6.76493 147.413 8.2384 147.413 10.2812V11.7546H140.648C140.715 12.7593 140.95 13.496 141.419 13.9648C141.854 14.4672 142.591 14.7016 143.629 14.7016C144.299 14.7016 144.968 14.6011 145.672 14.3667C146.341 14.1323 146.911 13.8979 147.346 13.5965V15.9071H147.279ZM142.725 6.79842C142.055 6.79842 141.519 7.03283 141.184 7.53515C140.849 8.03747 140.648 8.74072 140.615 9.67838H144.533V9.44397C144.533 8.70723 144.399 8.07096 144.131 7.56864C143.897 7.06632 143.394 6.79842 142.725 6.79842Z" fill="white"/>
<path d="M155.752 16.7103L153.24 12.6918L150.862 16.7103H148.016L151.733 10.515L148.15 4.82208H151.331L153.608 8.40529L155.651 4.82208H158.464L155.115 10.582L159 16.7103H155.752Z" fill="white"/>
<rect x="134" y="15.6836" width="42.6344" height="12.455" rx="6.22749" transform="rotate(-8.33078 134 15.6836)" fill="#FF5F37"/>
<path d="M173.577 17.5494C173.219 18.0493 172.892 18.3756 172.525 18.4293C172.113 18.4898 171.81 18.2158 171.723 17.622L171.356 15.1103C171.109 13.4261 170.07 12.9219 169.016 13.0763C168.382 13.1692 167.846 13.4757 167.321 14.0285C166.802 13.5926 166.164 13.3944 165.407 13.5054C164.329 13.6631 163.431 14.4682 163.119 16.4331L162.775 14.0895L161.262 14.3111L161.215 15.909C161.103 19.6843 160.475 20.1939 159.879 20.2812C159.643 20.3158 159.377 20.2848 159.026 20.0382C159.187 19.4661 159.201 18.8508 159.104 18.1871C158.775 15.9383 157.024 14.7328 155.007 15.0282C152.76 15.3573 151.698 17.1237 150.832 19.2094C150.112 20.9456 149.516 21.7987 148.526 21.9437C148.178 21.9946 147.964 21.9656 147.708 21.8702C149.236 20.3745 149.975 18.983 149.807 17.8381C149.615 16.5238 148.56 15.9723 147.368 16.1469C145.809 16.3752 144.669 17.9342 145.04 20.4653C145.114 20.9703 145.244 21.4283 145.425 21.8298C144.79 22.3968 144.199 22.6668 143.504 22.7686C142.367 22.9351 141.778 22.6236 141.571 21.212L141.404 20.0729L143.963 19.6983L143.735 18.1406L141.176 18.5153L140.966 17.0842L139.316 17.326L139.525 18.757L137.875 18.9987L138.103 20.5564L139.753 20.3147L139.929 21.5121C140.302 24.0627 141.655 24.7297 143.489 24.4612C144.699 24.284 145.525 23.8026 146.356 23.0648C146.956 23.5415 147.732 23.7503 148.649 23.6161C150.226 23.3852 151.148 22.5143 152.191 20.1044C152.849 18.586 153.333 16.9639 155.102 16.7047C156.258 16.5355 157.318 17.1857 157.511 18.5C157.53 18.636 157.541 18.7633 157.543 18.8839C156.676 17.9541 155.806 17.7851 155.098 17.8887C153.915 18.062 153.048 19.1137 153.255 20.5253C153.461 21.9369 154.573 22.7486 156.132 22.5203C157.041 22.3873 157.78 21.9497 158.291 21.3792C158.959 21.8833 159.527 22.0232 160.094 21.9402C161.09 21.7943 161.952 20.979 162.16 18.9092L162.53 21.4343L163.86 21.2396L164.198 17.7295C164.392 15.7224 164.873 15.1745 165.515 15.0805C165.822 15.0356 166.113 15.1006 166.375 15.291C165.346 16.9589 165.262 18.2745 165.388 19.1364C165.559 20.3046 166.284 21.0337 167.43 20.8659C168.714 20.6779 169.148 19.3515 168.884 17.5505C168.743 16.5858 168.493 15.7371 168.133 15.0674C168.395 14.8243 168.639 14.7225 168.877 14.6877C169.335 14.6205 169.681 14.8683 169.781 15.5497L170.12 17.8667C170.377 19.6191 171.291 20.3005 172.575 20.1125C173.446 19.9849 174.093 19.4727 174.621 18.6693L173.577 17.5494ZM147.527 17.814C147.839 17.7683 148.131 17.9046 148.189 18.3037C148.29 18.9911 147.537 19.9711 146.728 20.7856C146.668 20.601 146.623 20.3995 146.592 20.1884C146.399 18.8741 146.885 17.908 147.527 17.814ZM154.852 20.2416C154.788 19.8035 155.067 19.534 155.388 19.487C155.755 19.4333 156.08 19.5447 156.678 20.0439L157.021 20.3279C156.757 20.6084 156.4 20.7907 155.945 20.8573C155.44 20.9311 154.925 20.7381 154.852 20.2416ZM167.243 19.2028C167.023 19.2351 166.901 19.0441 166.851 18.7033C166.77 18.1485 166.834 17.3784 167.171 16.5591C167.284 16.9013 167.378 17.307 167.447 17.7808C167.558 18.5402 167.518 19.1625 167.243 19.2028Z" fill="white"/>
</svg>
